<svg width="375" height="667" viewBox="0 0 375 667" fill="none" xmlns="http://www.w3.org/2000/svg">
  <rect width="375" height="667" fill="#F8FAFC"/>
  
  <!-- Header -->
  <rect x="0" y="0" width="375" height="88" fill="#667EEA"/>
  <text x="187.5" y="55" text-anchor="middle" fill="white" font-family="Inter" font-size="18" font-weight="600">Invoice Created</text>
  
  <!-- Success Icon -->
  <circle cx="187.5" cy="180" r="40" fill="#10B981"/>
  <path d="M167.5 180L177.5 190L207.5 160" stroke="white" stroke-width="3" fill="none" stroke-linecap="round" stroke-linejoin="round"/>
  
  <!-- Success Message -->
  <text x="187.5" y="250" text-anchor="middle" fill="#1E293B" font-family="Inter" font-size="24" font-weight="600">Invoice Generated!</text>
  <text x="187.5" y="275" text-anchor="middle" fill="#64748B" font-family="Inter" font-size="16">Your professional invoice is ready</text>
  
  <!-- Invoice Details Card -->
  <rect x="32" y="300" width="311" height="120" rx="12" fill="white" stroke="#E2E8F0"/>
  <text x="48" y="325" fill="#64748B" font-family="Inter" font-size="12">Invoice Number</text>
  <text x="48" y="342" fill="#1E293B" font-family="Inter" font-size="16" font-weight="600">INV-0001</text>
  
  <text x="48" y="370" fill="#64748B" font-family="Inter" font-size="12">Client</text>
  <text x="48" y="387" fill="#1E293B" font-family="Inter" font-size="16" font-weight="600">Acme Corporation</text>
  
  <text x="327" y="325" text-anchor="end" fill="#64748B" font-family="Inter" font-size="12">Amount</text>
  <text x="327" y="342" text-anchor="end" fill="#667EEA" font-family="Inter" font-size="20" font-weight="700">$2,706.25</text>
  
  <text x="327" y="370" text-anchor="end" fill="#64748B" font-family="Inter" font-size="12">Status</text>
  <rect x="275" y="374" width="44" height="18" rx="9" fill="#10B981"/>
  <text x="297" y="385" text-anchor="middle" fill="white" font-family="Inter" font-size="10" font-weight="500">READY</text>
  
  <!-- Action Buttons -->
  <rect x="32" y="450" width="311" height="48" rx="12" fill="#667EEA"/>
  <text x="187.5" y="479" text-anchor="middle" fill="white" font-family="Inter" font-size="16" font-weight="600">Preview & Share</text>
  
  <rect x="32" y="514" width="149" height="44" rx="10" fill="rgba(103, 126, 234, 0.1)" stroke="#667EEA"/>
  <text x="106.5" y="540" text-anchor="middle" fill="#667EEA" font-family="Inter" font-size="14" font-weight="500">Save to Files</text>
  
  <rect x="194" y="514" width="149" height="44" rx="10" fill="rgba(103, 126, 234, 0.1)" stroke="#667EEA"/>
  <text x="268.5" y="540" text-anchor="middle" fill="#667EEA" font-family="Inter" font-size="14" font-weight="500">Send via Email</text>
  
  <!-- Features List -->
  <text x="32" y="590" fill="#1E293B" font-family="Inter" font-size="16" font-weight="600">What's included:</text>
  
  <circle cx="40" cy="610" r="4" fill="#10B981"/>
  <text x="56" y="614" fill="#64748B" font-family="Inter" font-size="14">Professional PDF format</text>
  
  <circle cx="40" cy="630" r="4" fill="#10B981"/>
  <text x="56" y="634" fill="#64748B" font-family="Inter" font-size="14">Ready for printing or sharing</text>
  
  <circle cx="40" cy="650" r="4" fill="#10B981"/>
  <text x="56" y="654" fill="#64748B" font-family="Inter" font-size="14">Automatically saved to your device</text>
</svg>
