<svg width="375" height="667" viewBox="0 0 375 667" fill="none" xmlns="http://www.w3.org/2000/svg">
  <rect width="375" height="667" fill="#F8FAFC"/>
  
  <!-- Header -->
  <rect x="0" y="0" width="375" height="88" fill="#667EEA"/>
  <text x="187.5" y="55" text-anchor="middle" fill="white" font-family="Inter" font-size="18" font-weight="600">My Invoices</text>
  
  <!-- Add Button -->
  <circle cx="335" cy="50" r="16" fill="rgba(255,255,255,0.2)"/>
  <text x="335" y="55" text-anchor="middle" fill="white" font-family="Inter" font-size="20" font-weight="300">+</text>
  
  <!-- Invoice List -->
  <rect x="16" y="104" width="343" height="80" rx="8" fill="white" stroke="#E2E8F0"/>
  <text x="24" y="125" fill="#1E293B" font-family="Inter" font-size="16" font-weight="600">INV-0001</text>
  <rect x="315" y="118" width="36" height="16" rx="8" fill="#10B981"/>
  <text x="333" y="128" text-anchor="middle" fill="white" font-family="Inter" font-size="10" font-weight="500">PAID</text>
  <text x="24" y="143" fill="#64748B" font-family="Inter" font-size="14">Acme Corporation</text>
  <text x="24" y="160" fill="#64748B" font-family="Inter" font-size="12">Dec 8, 2024</text>
  <text x="335" y="160" text-anchor="end" fill="#1E293B" font-family="Inter" font-size="16" font-weight="600">$2,706.25</text>
  
  <rect x="16" y="196" width="343" height="80" rx="8" fill="white" stroke="#E2E8F0"/>
  <text x="24" y="217" fill="#1E293B" font-family="Inter" font-size="16" font-weight="600">INV-0002</text>
  <rect x="315" y="210" width="36" height="16" rx="8" fill="#3B82F6"/>
  <text x="333" y="220" text-anchor="middle" fill="white" font-family="Inter" font-size="10" font-weight="500">SENT</text>
  <text x="24" y="235" fill="#64748B" font-family="Inter" font-size="14">Tech Solutions Ltd</text>
  <text x="24" y="252" fill="#64748B" font-family="Inter" font-size="12">Dec 6, 2024</text>
  <text x="335" y="252" text-anchor="end" fill="#1E293B" font-family="Inter" font-size="16" font-weight="600">$1,850.00</text>
  
  <rect x="16" y="288" width="343" height="80" rx="8" fill="white" stroke="#E2E8F0"/>
  <text x="24" y="309" fill="#1E293B" font-family="Inter" font-size="16" font-weight="600">INV-0003</text>
  <rect x="315" y="302" width="36" height="16" rx="8" fill="#6B7280"/>
  <text x="333" y="312" text-anchor="middle" fill="white" font-family="Inter" font-size="10" font-weight="500">DRAFT</text>
  <text x="24" y="327" fill="#64748B" font-family="Inter" font-size="14">StartUp Inc</text>
  <text x="24" y="344" fill="#64748B" font-family="Inter" font-size="12">Dec 5, 2024</text>
  <text x="335" y="344" text-anchor="end" fill="#1E293B" font-family="Inter" font-size="16" font-weight="600">$3,200.00</text>
  
  <rect x="16" y="380" width="343" height="80" rx="8" fill="white" stroke="#E2E8F0"/>
  <text x="24" y="401" fill="#1E293B" font-family="Inter" font-size="16" font-weight="600">INV-0004</text>
  <rect x="309" y="394" width="42" height="16" rx="8" fill="#EF4444"/>
  <text x="330" y="404" text-anchor="middle" fill="white" font-family="Inter" font-size="10" font-weight="500">OVERDUE</text>
  <text x="24" y="419" fill="#64748B" font-family="Inter" font-size="14">Global Corp</text>
  <text x="24" y="436" fill="#64748B" font-family="Inter" font-size="12">Nov 28, 2024</text>
  <text x="335" y="436" text-anchor="end" fill="#1E293B" font-family="Inter" font-size="16" font-weight="600">$4,500.00</text>
  
  <!-- Stats -->
  <rect x="16" y="480" width="343" height="60" rx="8" fill="white" stroke="#E2E8F0"/>
  <text x="24" y="501" fill="#64748B" font-family="Inter" font-size="12">Total Outstanding</text>
  <text x="335" y="501" text-anchor="end" fill="#EF4444" font-family="Inter" font-size="16" font-weight="600">$6,350.00</text>
  <text x="24" y="521" fill="#64748B" font-family="Inter" font-size="12">Total Paid</text>
  <text x="335" y="521" text-anchor="end" fill="#10B981" font-family="Inter" font-size="16" font-weight="600">$2,706.25</text>
</svg>
