<svg width="128" height="128" viewBox="0 0 128 128" fill="none" xmlns="http://www.w3.org/2000/svg">
  <rect width="128" height="128" rx="22" fill="url(#gradient)"/>
  <path d="M32 32H96V96H32V32Z" fill="white" fill-opacity="0.1"/>
  <path d="M40 28H88C91.3137 28 94 30.6863 94 34V94C94 97.3137 91.3137 100 88 100H40C36.6863 100 34 97.3137 34 94V34C34 30.6863 36.6863 28 40 28Z" fill="white"/>
  <path d="M42 40H86" stroke="#667EEA" stroke-width="2" stroke-linecap="round"/>
  <path d="M42 50H86" stroke="#667EEA" stroke-width="2" stroke-linecap="round"/>
  <path d="M42 60H70" stroke="#667EEA" stroke-width="2" stroke-linecap="round"/>
  <path d="M42 70H78" stroke="#667EEA" stroke-width="2" stroke-linecap="round"/>
  <rect x="60" y="80" width="24" height="12" rx="2" fill="#667EEA"/>
  <text x="72" y="89" text-anchor="middle" fill="white" font-family="Inter" font-size="8" font-weight="600">PDF</text>
  <defs>
    <linearGradient id="gradient" x1="0" y1="0" x2="128" y2="128" gradientUnits="userSpaceOnUse">
      <stop stop-color="#667EEA"/>
      <stop offset="1" stop-color="#764BA2"/>
    </linearGradient>
  </defs>
</svg>
